<?xml version="1.0"?>
<svg version="1.1" xmlns="http://www.w3.org/2000/svg" width="309px" height="100px" style=""><path fill="#2bc271" d="M11.32,75.84q0-1.12,4.6-8.68q-3.28,0-4.36,0.28q-1.8,0.44-2.68,1.8q-0.32,0.44-0.54,0.48t-0.22-0.18t0.16-0.38q1.52-2.04,3-2.8t4.68-0.76l0.96,0q2.44-3.72,6.84-11.04q1.64-3.08,1.64-5q0-3.08-3.76-3.12l-0.44,0q-5.12,0-9.32,2.56t-6.64,6.36t-2.44,6.84q0,3.72,3.48,3.72q2.76,0,4.72-2.44t1.96-4.64q0-1.24-0.64-2.04q-0.08-0.08-0.08-0.2q0-0.28,0.32-0.28q0.16,0,0.24,0.12q0.8,1.04,0.8,2.48q0,2.44-2,4.98t-4.2,2.82q-0.68,0.12-1.32,0.12q-2.56,0-3.96-1.64q-1.36-1.48-1.36-4q0-1.04,0.24-2.12q1.2-5.4,6.94-9.44t12.9-4.04q2.76,0,4.74,1.18t1.98,3.3t-1.48,4.48l-7.24,11.12q1.28,0.04,4.58,0.38t4.96,0.34t2.22-0.04l1.52-2.52q3.88-6.52,8.98-12.18t8.9-7.02q0.12-0.04,0.24-0.04q0.28,0,0.28,0.32q0,0.12-0.12,0.2q-2.56,1.44-7.34,6.98t-8.26,11.38l-1.56,2.64q1.84-0.24,2.64-0.92q0.16-0.12,0.28,0.14t-0.04,0.38q-1.2,0.92-3.4,1.32q-2.8,5.2-2.8,7.32q0,1.36,1.16,1.36q0.8,0,1.86-0.54t1.42-0.92t0.44-0.38t0.04,0.26t-0.16,0.42q-0.68,0.64-2.04,1.36t-2.2,0.72t-1.24-0.28q-1.28-0.84-1.28-2.92t2.12-6.08q-1.48,0.12-2.76,0.12q-0.44,0-9.4-0.28q-2.84,4.48-4.56,8.16q-0.52,1.08-1.26,1.08t-0.74-0.6z M53.0868,62.04l0.56-0.12q0.44,0,0.84,0.36t0.4,0.56t-2.48,3.86t-2.48,5.1q0,0.12,0.04,0.24q0.2,0.92,0.88,0.92q2.08,0,7.6-6.88q0.12-0.16,0.28-0.16t0.16,0.3t-0.36,0.78q-5.12,6.84-7.8,6.84q-0.36,0-0.68-0.12q-1.76-0.68-1.76-2.64q0-0.68,0.16-1.36l-2.48,2.4q-2.36,2.08-3.42,2.08t-2.02-0.68q-1.08-0.8-1.08-2.12q0-2.92,4.08-6.98t7.48-4.06q1.32,0,1.76,0.92q0.12,0.32,0.2,0.54t0.12,0.22z M41.1268,71.88q0,1.44,1,1.44q2.32,0,6.32-5.08l4.24-5.84q-0.32-0.56-1.04-0.56q-2.44,0-6.48,3.78t-4.04,6.26z M65.4136,73.4q-1.16,0.68-2.86,0.68t-2.6-1.12t-1.54-3.56q-0.72,0.72-1,0.72q-0.2,0-0.2-0.28t0.2-0.48q1.32-1.64,4.48-4.72l5.04-4.72q2.16-2.04,2.56-2.04q1.28,0,1.28,0.96q0,0.48-0.38,0.94t-0.56,0.72t-0.38,0.5q-0.72,1.24-1.46,5.12t-1.14,5.4q3.32-0.04,6.84-4.32q0.4-0.4,0.6-0.4t0.2,0.26t-0.36,0.7q-2.32,2.72-4.32,3.8q-1.2,0.6-3.12,1z M60.0136,68.96q0,1.36,0.9,2.22t2.02,0.86t1.72-0.44q0.8-0.44,1.58-3.68t0.94-5.72l0.16-1.36q-2.2,1.64-4.7,4.24t-2.58,3.44q-0.04,0.24-0.04,0.44z M81.5404,73.4q-1.16,0.68-2.86,0.68t-2.6-1.12t-1.54-3.56q-0.72,0.72-1,0.72q-0.2,0-0.2-0.28t0.2-0.48q1.32-1.64,4.48-4.72l5.04-4.72q2.16-2.04,2.56-2.04q1.28,0,1.28,0.96q0,0.48-0.38,0.94t-0.56,0.72t-0.38,0.5q-0.72,1.24-1.46,5.12t-1.14,5.4q3.32-0.04,6.84-4.32q0.4-0.4,0.6-0.4t0.2,0.26t-0.36,0.7q-2.32,2.72-4.32,3.8q-1.2,0.6-3.12,1z M76.1404,68.96q0,1.36,0.9,2.22t2.02,0.86t1.72-0.44q0.8-0.44,1.58-3.68t0.94-5.72l0.16-1.36q-2.2,1.64-4.7,4.24t-2.58,3.44q-0.04,0.24-0.04,0.44z M103.5872,62.04l0.56-0.12q0.44,0,0.84,0.36t0.4,0.56t-2.48,3.86t-2.48,5.1q0,0.12,0.04,0.24q0.2,0.92,0.88,0.92q2.08,0,7.6-6.88q0.12-0.16,0.28-0.16t0.16,0.3t-0.36,0.78q-5.12,6.84-7.8,6.84q-0.36,0-0.68-0.12q-1.76-0.68-1.76-2.64q0-0.68,0.16-1.36l-2.48,2.4q-2.36,2.08-3.42,2.08t-2.02-0.68q-1.08-0.8-1.08-2.12q0-2.92,4.08-6.98t7.48-4.06q1.32,0,1.76,0.92q0.12,0.32,0.2,0.54t0.12,0.22z M91.6272,71.88q0,1.44,1,1.44q2.32,0,6.32-5.08l4.24-5.84q-0.32-0.56-1.04-0.56q-2.44,0-6.48,3.78t-4.04,6.26z M114.994,61.36q1.08,0,1.08,0.84q0,0.24-0.12,0.48q-3.6,5-4.32,7.56q9.32-9.32,11.32-9.32q0.2-0.04,0.36-0.04q1.12,0,1.12,1q0,0.2-0.08,0.4t-1.6,2.16q-1.76,2.08-2.98,4t-1.22,3.2t0.56,1.28q1.76,0,6.12-4.84q0.08-0.08,0.28-0.36q0.6-0.72,0.72-0.72t0.12,0.4t-0.56,1.04q-4.96,5.64-7.04,5.64q-1.96,0-1.96-2.16t1.6-4.96l2.56-4.16q-2.72,2-4.84,4.38t-3.86,4.62t-2.02,2.24q-0.6,0-0.94-0.5t-0.34-1.24t0.52-1.98t1.32-3l-2.4,2.52q-0.88,0.88-1.1,0.88t-0.22-0.26t0.32-0.58q1.48-1.48,2.56-2.84q1.04-1.36,4.28-5.2q0.36-0.48,0.76-0.48z M128.4808,74.52q-0.44,0-0.8-0.12q-2.56-0.72-2.56-2.88q0-2.8,3.52-6.48t6.32-3.68q0.92,0,1.5,0.5t0.58,1.22q0,2.24-3.38,4.28t-5.5,2.04q-0.32,0-0.56-0.08q-0.6,1.08-0.6,2.28q0,2.08,1.98,2.08t5.14-2.68q2.44-1.96,4.16-4.16q0.36-0.48,0.62-0.48t0.26,0.24t-0.32,0.68q-2.16,2.84-5.2,5.04t-5.16,2.2z M136.0408,63q0-0.48-1.02-0.48t-2.9,1.56q-2.52,2.08-3.92,4.36q0.24,0.08,0.52,0.08q1.52,0,4.06-1.62t3.18-3.54q0.08-0.2,0.08-0.36z M169.2876,66.44q0,1.44-0.64,2.72q-1.36,2.88-5.2,4.8t-8,1.92q-6.32,0-8.6-4.32q-4.12,3.44-5.88,3.44q-0.32,0-0.56-0.12q-1.2-0.64-1.2-2.76t1.76-5.2t3.08-3.64q0.6-0.2,0.92-0.2q1.16,0,1.76,1.92l1.2,3.84q1.16-1.24,3.16-3.96l3.56-4.8q6.56-8.52,8.6-9.32q0.72-0.28,1.48-0.28t1.26,0.32t0.5,0.8q0,0.72-1.16,0.84q-1.2,0.68-4.58,3.98t-4.02,4.18q-4.48,6.24-8.28,9.6q2.44,4.84,7.32,4.84q2.96,0,5.88-1.86t4.36-4.58q0.64-1.16,0.64-2.6t-1.14-2.74t-2.86-1.9q-0.8-0.12-2.56-0.34t-1.76-0.74q0-0.2,0.16-0.36q0.48-0.56,1.24-0.56q0.44,0,0.86,0.16t0.66,0.24t0.56,0.2q0.88,0.08,1.52,0.08q2.64,0,4.8-0.84q2.76-1.08,3.52-3.24q0.48-1.4,0.48-2.52q0-2.76-2.68-4.12q-2.32-1.2-6.36-1.2q-6.36,0-11.4,2.4q-2.56,1.2-4.86,3.56t-2.3,4.04q0,1.16,0.6,1.92q0.24,0.32,0.84,0.8q0.2,0.12-0.24,0.12q-2.48-0.56-2.48-3.32t2.8-5.2q2.08-1.8,4.68-2.92q5.4-2.32,12.28-2.32q4.92,0,7.84,1.44q3.4,1.6,3.4,4.84q0,1.28-0.52,2.6q-0.84,2.4-4.36,3.64q-2.64,0.92-5.68,0.96q2.36,0.12,3.98,1.74t1.62,4.02z M143.7276,64.96q-0.04,0-0.2,0.08q-2.96,4.28-2.96,6.88q0,1.08,0.52,1.96q0.12,0.2,0.4,0.2q1.28,0,4.92-3.64l-0.12-0.16q-1.6-5.32-2.56-5.32z M186.2944,62.04l0.56-0.12q0.44,0,0.84,0.36t0.4,0.56t-2.48,3.86t-2.48,5.1q0,0.12,0.04,0.24q0.2,0.92,0.88,0.92q2.08,0,7.6-6.88q0.12-0.16,0.28-0.16t0.16,0.3t-0.36,0.78q-5.12,6.84-7.8,6.84q-0.36,0-0.68-0.12q-1.76-0.68-1.76-2.64q0-0.68,0.16-1.36l-2.48,2.4q-2.36,2.08-3.42,2.08t-2.02-0.68q-1.08-0.8-1.08-2.12q0-2.92,4.08-6.98t7.48-4.06q1.32,0,1.76,0.92q0.12,0.32,0.2,0.54t0.12,0.22z M174.3344,71.88q0,1.44,1,1.44q2.32,0,6.32-5.08l4.24-5.84q-0.32-0.56-1.04-0.56q-2.44,0-6.48,3.78t-4.04,6.26z M200.7412,73.84q-2.36,0-2.36-2.76q0-1.56,1.1-3.46t2.7-4.46q-5.12,2.56-9.28,7.56q-2.32,3.48-2.72,3.48q-1.16,0-1.16-0.68q0-0.36,0.48-1.28q3.88-6.92,5.88-10.12q4.76-7.64,6.72-8.28q0.08-0.04,0.16-0.04q0.52,0,0.72,0.84q-0.12,0.84-4.16,6.08q-4.2,5.32-4.76,6.96q1.48-1.08,5.16-3.64q3.96-2.76,5.24-2.76t1.28,1q0,0.16-0.02,0.22t-2.78,3.78t-2.76,5.48q0,0.92,0.68,0.92q2.16-0.08,6.48-5.2q0.36-0.36,0.54-0.36t0.18,0.24q0,0.8-3.96,4.32q-2.48,2.16-3.36,2.16z M214.248,71.88q0.54,0.4,0.54,0.9t-0.5,0.88t-1.1,0.38t-1.1-0.42t-0.5-0.98q0-1.16,1.52-1.16q0.6,0,1.14,0.4z M221.9148,74.52q-0.44,0-0.8-0.12q-2.56-0.72-2.56-2.88q0-2.8,3.52-6.48t6.32-3.68q0.92,0,1.5,0.5t0.58,1.36t-0.52,1.8t-1.56,0.94t-1.04-0.64q0-0.44,0.54-1.34t0.54-0.96t-0.12-0.06q-1.12,0.12-3.06,1.6t-2.66,2.48l-1.56,2.28q-0.4,0.64-0.58,1.52t-0.18,1.32t0.5,1t1.42,0.56q2,0,4.96-2.34t4.56-4.46q0.2-0.24,0.48-0.24t0.28,0.16t-0.2,0.4q-2.2,2.92-5.26,5.1t-5.1,2.18z M242.4016,65.52q0,1.4-2.68,4.68q-3.16,3.88-5.4,3.88l-0.64,0q-1.04,0-1.64-1.08q-0.48-0.76-0.48-1.68q0-2.4,3.5-6.74t5.66-4.34q2.04,0,2.04,2.16q0,0.56-0.2,1.44q0.04,0.12,0.76,0.12t2.2-0.76q-0.04,0.68-3.16,1.96q0.04,0.16,0.04,0.36z M239.8016,63.44q-1.36,0-3.86,3.2t-2.5,4.72t0.96,1.52q1.72,0,4.36-3.12t2.64-4.48q-0.64-0.36-1.6-1.84z M264.0884,73.52q-2.72,0-2.72-2.52q0-1.44,1.28-3.94t2.68-4.22q-2.48,1.2-5.72,4.34t-4.52,6.58q-0.2,0.32-0.68,0.32q-0.96,0-0.96-1.08q0.4-2.2,1.8-5.04q0.44-0.92,2.6-5.36q-3.12,2.04-5.3,4.38t-4.04,4.7t-2.1,2.36q-0.52,0-0.9-0.48t-0.38-0.96q0-0.72,2.08-5.28l-2.4,2.52q-0.88,0.88-1.1,0.88t-0.22-0.26t0.32-0.58q1.48-1.48,2.64-2.96t3.84-5.28q0.44-0.6,1.24-0.6t0.8,0.76q0,0.28-2.12,3.9t-2.36,4.54q1.64-1.8,4.92-4.84q4.92-4.56,6.48-4.56q0.48,0,0.88,0.28t0.4,0.62t-1.56,3.02q-1.52,2.76-1.68,3.28q4.44-3.72,4.44-3.76q3.76-2.92,5.4-2.92q0.48,0,0.9,0.3t0.42,0.7q0,0.08-2.6,3.38t-2.92,5.42q-0.08,0.72,0.28,1.08t1.3,0.36t2.76-1.3t3.7-3.5q0.72-0.8,0.98-0.8t0.26,0.2q0,0.28-0.36,0.64q-1.96,2.36-4.22,4.02t-3.54,1.66z"/><path fill="#37c461" d="M176.556640625,48.2568359375q-0.01953125-0.2587890625,0.0439453125-0.48828125t0.2392578125-0.380859375t0.595703125-0.1513671875q0.09765625,0,0.2392578125,0.01953125t0.283203125,0.0634765625t0.2294921875,0.1220703125t0.087890625,0.21484375q0,0.361328125,0.0244140625,0.9521484375t0.0634765625,1.23046875t0.0732421875,1.25t0.0634765625,0.9912109375q0.76171875-0.0390625,1.533203125-0.0390625t1.5234375-0.0390625l1.34765625-0.0390625l0-0.966796875q0-1.62109375-0.0634765625-3.2470703125t-0.2197265625-3.2470703125q0-0.1171875,0.09765625-0.1904296875t0.2294921875-0.1123046875t0.2734375-0.048828125t0.2197265625-0.009765625q0.224609375,0,0.4833984375,0.068359375t0.2978515625,0.29296875l0.05859375,0.419921875q0.244140625,1.7578125,0.33203125,3.4765625t0.126953125,3.4375q0.1171875,0.01953125,0.2490234375,0.0634765625t0.2685546875,0.0830078125q0.09765625,0.0390625,0.2783203125,0.1171875t0.1806640625,0.244140625q0,0.15625-0.13671875,0.244140625t-0.3076171875,0.1318359375t-0.33203125,0.0537109375t-0.2001953125,0.009765625q0.01953125,0.72265625,0.01953125,1.4404296875l0,1.4404296875l0,3.154296875l0,1.7578125q0,0.1171875-0.1123046875,0.2099609375t-0.2685546875,0.1513671875t-0.3271484375,0.078125t-0.3076171875,0.01953125t-0.322265625-0.01953125t-0.33203125-0.078125t-0.2587890625-0.146484375t-0.1123046875-0.21484375l0-0.419921875q0.0390625-1.85546875,0.087890625-3.6767578125t0.09765625-3.6572265625q-1.064453125,0.0390625-2.1630859375,0.048828125t-2.1826171875,0.048828125q0.1171875,1.376953125,0.2685546875,2.7490234375t0.3173828125,2.7490234375q0,0.1171875-0.1123046875,0.2099609375t-0.263671875,0.1513671875t-0.322265625,0.078125t-0.3076171875,0.01953125q-0.283203125,0-0.6201171875-0.09765625t-0.3759765625-0.361328125q-0.1171875-1.03515625-0.2197265625-2.28515625t-0.1806640625-2.5537109375t-0.1220703125-2.5537109375t-0.0439453125-2.265625q0-0.244140625-0.01953125-0.5029296875z M187.73994140625,46.2158203125q-0.0244140625-0.2978515625,0.0390625-0.517578125t0.25390625-0.361328125t0.6103515625-0.1416015625l1.572265625,0q0.322265625,0,0.8447265625,0.0341796875t1.123046875,0.1025390625t1.1962890625,0.2099609375t1.0888671875,0.3515625t0.80078125,0.517578125t0.3076171875,0.7275390625q0,0.595703125-0.3466796875,1.1181640625t-0.869140625,0.9423828125t-1.103515625,0.7470703125t-1.0400390625,0.5908203125q1.81640625,0.400390625,2.841796875,1.66015625t1.025390625,3.14453125q0,0.99609375-0.380859375,1.9677734375t-1.0400390625,1.7529296875t-1.5625,1.259765625t-1.9384765625,0.478515625q-0.13671875,0-0.3076171875-0.029296875t-0.3125-0.0927734375t-0.244140625-0.1806640625t-0.1025390625-0.302734375q0-0.859375,0.927734375-0.859375q0.15625,0,0.3662109375,0.0439453125t0.3271484375,0.1806640625q0.537109375-0.224609375,0.9814453125-0.712890625t0.751953125-1.0888671875t0.478515625-1.259765625t0.1708984375-1.1962890625q0-0.64453125-0.1904296875-1.3134765625t-0.5517578125-1.240234375t-0.888671875-0.9619140625t-1.2109375-0.48828125q-0.17578125-0.01953125-0.3857421875-0.029296875l-0.419921875-0.01953125t-0.41015625-0.05859375t-0.3466796875-0.15625q0.078125,1.62109375,0.2001953125,3.232421875t0.3271484375,3.232421875q0.078125,0.078125,0.107421875,0.2294921875t0.048828125,0.322265625t0.01953125,0.3271484375l0,0.263671875q0,0.17578125-0.1171875,0.2880859375t-0.2783203125,0.1806640625t-0.341796875,0.087890625t-0.3173828125,0.01953125q-0.439453125,0-0.673828125-0.1171875t-0.33203125-0.341796875t-0.126953125-0.5126953125t-0.048828125-0.6298828125q-0.263671875-2.724609375-0.380859375-5.390625t-0.1171875-5.390625q0-0.322265625-0.0244140625-0.6201171875z M189.54169921875,45.80078125q0,1.201171875,0.078125,2.4072265625t0.13671875,2.4072265625q0.439453125-0.263671875,1.15234375-0.6201171875t1.3818359375-0.7861328125t1.1474609375-0.947265625t0.478515625-1.123046875q0-0.478515625-0.56640625-0.7275390625t-1.318359375-0.37109375t-1.4697265625-0.1513671875t-1.0205078125-0.087890625z"/></svg>
